PathFileType   4   (X/Y/Z)
DataRate	CameraRate	NumFrames	NumMarkers	Units	OrigDataRate	OrigDataStartFrame	OrigNumFrames
120.0	120.0	5	37	mm	120.0	16	122
Frame#	Time	midhip	hip_r	hip_l	knee_r	knee_l	ankle_r	ankle_l	midasis	asis_r	asis_l	psis_r	psis_l	epicondLat_r	epicondLat_l	epicondMed_r	epicondMed_l	malleolusLat_r	malleolusLat_l	malleolusMedv_r	malleolusMedv_l	neck	subclavicle_r	subclavicle_l	sternalnotch	xyphoidprocess	thighwand_r	thighwand_l	upperleg1_r	upperleg1_l	upperleg2_r	upperleg2_l	shankwand_r	shankwand_l	lowerleg1_r	lowerleg1_l	toe_r	toe_l
 	 	X1	Y1	Z1	X2	Y2	Z2	X3	Y3	Z3	X4	Y4	Z4	X5	Y5	Z5	X6	Y6	Z6	X7	Y7	Z7	X8	Y8	Z8	X9	Y9	Z9	X10	Y10	Z10	X11	Y11	Z11	X12	Y12	Z12	X13	Y13	Z13	X14	Y14	Z14	X15	Y15	Z15	X16	Y16	Z16	X17	Y17	Z17	X18	Y18	Z18	X19	Y19	Z19	X20	Y20	Z20	X21	Y21	Z21	X22	Y22	Z22	X23	Y23	Z23	X24	Y24	Z24	X25	Y25	Z25	X26	Y26	Z26	X27	Y27	Z27	X28	Y28	Z28	X29	Y29	Z29	X30	Y30	Z30	X31	Y31	Z31	X32	Y32	Z32	X33	Y33	Z33	X34	Y34	Z34	X35	Y35	Z35	X36	Y36	Z36	X37	Y37	Z37

	16	0.23333	1233.069	677.820	-206.237	1228.646	681.334	-141.030	1225.957	687.112	-266.697	1308.596	367.862	-126.935	1302.058	380.776	-232.372	1055.976	181.133	-136.088	1259.798	57.880	-229.987	1293.913	746.755	-202.413	1295.918	742.446	-108.694	1291.907	751.065	-296.133	1148.825	786.459	-178.068	1145.559	784.919	-233.499	1304.222	369.008	-76.638	1302.906	375.417	-282.077	1325.972	352.779	-169.103	1308.464	383.158	-180.505	1051.871	185.069	-103.074	1256.538	58.053	-264.332	1062.662	188.809	-162.019	1252.179	66.447	-202.335	1173.011	1132.864	-212.991	1261.773	1091.339	-153.924	1250.714	1089.542	-282.396	1251.097	1078.615	-220.166	1278.025	937.236	-219.723	1277.227	453.713	-3.174	1409.798	511.761	-278.030	1307.876	517.754	-68.112	1326.942	554.405	-230.438	1337.914	439.279	-73.794	1337.677	468.655	-214.323	1121.031	252.642	-26.050	1359.334	143.303	-264.125	1177.348	276.633	-82.379	1305.565	208.075	-248.279	1083.696	88.845	-130.224	1351.496	36.273	-223.271
	17	0.24167	1241.367	679.490	-206.177	1236.978	683.336	-141.140	1233.993	688.537	-266.826	1325.264	371.456	-127.519	1304.008	380.815	-232.763	1078.347	178.440	-136.128	1260.037	57.990	-229.965	1302.144	748.427	-202.980	1304.368	744.552	-109.332	1299.921	752.302	-296.628	1157.255	788.254	-178.136	1153.723	786.599	-233.556	1321.675	372.640	-77.161	1304.395	375.401	-282.468	1343.181	357.336	-169.682	1310.291	383.107	-181.027	1074.255	182.200	-103.093	1256.564	58.165	-264.290	1084.967	186.121	-162.152	1252.416	66.607	-202.315	1182.177	1134.704	-213.054	1270.740	1092.945	-153.907	1259.911	1091.264	-282.251	1260.125	1080.288	-220.080	1286.777	938.854	-219.713	1293.698	456.831	-2.970	1413.816	509.578	-279.244	1322.103	521.759	-68.376	1332.183	553.891	-231.261	1354.105	444.104	-74.492	1341.158	467.893	-215.100	1141.815	251.445	-26.219	1359.629	142.902	-264.693	1197.251	277.240	-82.761	1306.382	207.908	-248.460	1111.064	88.153	-129.881	1351.579	36.231	-223.363
	18	0.25000	1249.702	681.055	-206.068	1245.331	685.230	-141.209	1242.049	689.867	-266.910	1341.506	375.041	-128.243	1305.869	380.885	-233.056	1101.018	175.134	-136.104	1260.284	58.125	-229.899	1310.375	750.017	-203.496	1312.819	746.565	-109.919	1307.932	753.468	-297.074	1165.690	789.914	-178.138	1161.895	788.150	-233.517	1338.782	376.303	-77.832	1305.787	375.423	-282.757	1359.905	362.148	-170.649	1311.962	382.979	-181.628	1096.948	178.731	-103.047	1256.605	58.309	-264.202	1107.547	182.827	-162.237	1252.721	66.807	-202.226	1191.284	1136.420	-213.014	1279.627	1094.460	-153.873	1269.063	1092.883	-282.160	1269.130	1081.856	-220.010	1295.513	940.382	-219.705	1310.088	460.025	-2.868	1417.709	507.357	-280.388	1335.977	525.767	-68.681	1337.413	553.359	-231.932	1369.991	449.036	-75.472	1344.548	466.957	-215.828	1162.686	249.870	-26.402	1359.913	142.575	-265.179	1217.180	277.176	-83.117	1307.142	207.815	-248.542	1138.699	87.082	-129.502	1351.667	36.191	-223.448
	19	0.25833	1258.080	682.499	-205.921	1253.712	686.992	-141.242	1250.141	691.090	-266.953	1357.343	378.586	-129.085	1307.647	380.981	-233.255	1124.017	171.248	-136.024	1260.543	58.285	-229.786	1318.614	751.509	-203.956	1321.270	748.461	-110.441	1315.957	754.557	-297.470	1174.126	791.420	-178.075	1170.093	789.553	-233.381	1355.509	379.958	-78.637	1307.097	375.479	-282.948	1375.991	367.117	-171.919	1313.758	382.646	-182.224	1119.969	174.697	-102.948	1256.662	58.483	-264.066	1130.411	178.966	-162.236	1253.034	67.055	-202.072	1200.370	1138.008	-213.009	1288.555	1095.902	-153.854	1278.151	1094.372	-281.999	1278.103	1083.303	-219.947	1304.280	941.815	-219.625	1326.280	463.239	-2.894	1421.489	505.101	-281.439	1349.759	529.724	-68.990	1342.399	552.652	-232.319	1385.502	453.981	-76.614	1347.855	465.945	-216.437	1183.640	247.930	-26.601	1360.189	142.323	-265.593	1237.148	276.671	-83.324	1307.762	207.808	-248.622	1166.574	85.666	-129.096	1351.757	36.155	-223.527
	20	0.26667	1266.506	683.808	-205.749	1262.125	688.601	-141.243	1258.284	692.196	-266.962	1372.792	382.064	-130.029	1309.345	381.100	-233.363	1147.374	166.822	-135.900	1260.818	58.469	-229.623	1326.867	752.892	-204.352	1329.723	750.219	-110.887	1324.012	755.565	-297.817	1182.556	792.752	-177.955	1178.327	790.792	-233.154	1371.826	383.562	-79.560	1308.337	375.568	-283.046	1391.626	371.930	-173.212	1315.186	382.325	-182.926	1143.344	170.140	-102.809	1256.735	58.686	-263.879	1153.635	174.481	-162.243	1253.179	67.334	-201.894	1209.435	1139.489	-213.055	1297.440	1097.254	-153.841	1287.180	1095.748	-281.910	1287.040	1084.613	-219.879	1312.983	943.144	-219.558	1342.157	466.412	-3.066	1425.172	502.816	-282.381	1363.055	533.611	-69.423	1347.314	551.841	-232.575	1400.585	458.785	-77.862	1350.933	464.969	-217.032	1204.676	245.638	-26.818	1360.458	142.143	-265.952	1256.905	276.014	-83.706	1308.262	207.876	-248.762	1194.662	83.950	-128.677	1351.849	36.125	-223.600
